<?xml version="1.0" encoding="iso-8859-1"?>
<!-- Generator: Adobe Illustrator 19.0.0, SVG Export Plug-In . SVG Version: 6.00 Build 0)  -->
<svg version="1.1" id="Capa_1" xmlns="http://www.w3.org/2000/svg" xmlns:xlink="http://www.w3.org/1999/xlink" x="0px" y="0px"
	 viewBox="0 0 512.001 512.001" style="enable-background:new 0 0 512.001 512.001;" xml:space="preserve">
<path style="fill:#55D4B6;" d="M198.553,37.864l-22.649,11.923c-7.331,3.859-10.145,12.93-6.286,20.26
	c2.686,5.102,7.896,8.016,13.286,8.016c2.355,0,4.746-0.556,6.975-1.73l22.649-11.923c7.331-3.859,10.145-12.93,6.286-20.26
	C214.954,36.818,205.882,34.003,198.553,37.864z"/>
<path style="fill:#23A698;" d="M336.097,49.787l-22.649-11.923c-7.332-3.861-16.401-1.044-20.261,6.286
	c-3.858,7.331-1.045,16.401,6.286,20.26l22.649,11.923c2.229,1.174,4.619,1.73,6.975,1.73c5.391,0,10.601-2.915,13.286-8.016
	C346.241,62.717,343.428,53.646,336.097,49.787z"/>
<path style="fill:#FFCB47;" d="M507.494,166.745l-86.5-84.691c-20.142-19.722-46.76-30.583-74.95-30.583H165.956
	c-28.19,0-54.809,10.861-74.95,30.583l-86.5,84.691c-5.77,5.649-6.032,14.851-0.595,20.819l56.561,62.091
	c5.264,5.779,14.083,6.546,20.267,1.764l35.118-27.164l3.559,236.84c0.123,8.195,6.802,14.774,14.998,14.774h243.174
	c8.196,0,14.875-6.579,14.998-14.774l3.559-236.84l35.118,27.164c6.183,4.782,15.002,4.016,20.267-1.764l56.561-62.091
	C513.527,181.596,513.264,172.394,507.494,166.745z"/>
<path style="fill:#FFE369;" d="M256,51.471h-90.044c-28.19,0-54.809,10.861-74.95,30.583l-86.5,84.691
	c-5.77,5.649-6.032,14.851-0.595,20.819l56.561,62.091c5.264,5.779,14.083,6.546,20.267,1.764l35.118-27.164l3.559,236.84
	c0.123,8.195,6.802,14.774,14.998,14.774H256V51.471z"/>
<path style="fill:#55D4B6;" d="M195.275,125.008c-8.284,0-15,6.716-15,15v113.305c0,8.284,6.716,15,15,15s15-6.716,15-15V140.008
	C210.275,131.724,203.559,125.008,195.275,125.008z"/>
<path style="fill:#23A698;" d="M283.563,125.008c-26.557,0-48.162,21.605-48.162,48.163v46.98c0,26.557,21.605,48.162,48.162,48.162
	c26.558,0,48.163-21.605,48.163-48.162v-46.98C331.726,146.613,310.12,125.008,283.563,125.008z M301.726,220.151
	c0,10.015-8.147,18.162-18.163,18.162c-10.015,0-18.162-8.147-18.162-18.162v-46.98c0-10.015,8.147-18.163,18.162-18.163
	c10.016,0,18.163,8.148,18.163,18.163V220.151z"/>
<path style="fill:#55D4B6;" d="M256.654,133.244c-12.813,8.664-21.253,23.328-21.253,39.926v46.98
	c0,16.313,8.152,30.757,20.596,39.474L256.654,133.244z"/>
<g>
</g>
<g>
</g>
<g>
</g>
<g>
</g>
<g>
</g>
<g>
</g>
<g>
</g>
<g>
</g>
<g>
</g>
<g>
</g>
<g>
</g>
<g>
</g>
<g>
</g>
<g>
</g>
<g>
</g>
</svg>
